<?xml version="1.0" encoding="UTF-8"?>
<svg width="53px" height="40px" viewBox="0 0 53 40" version="1.1" xmlns="http://www.w3.org/2000/svg" xmlns:xlink="http://www.w3.org/1999/xlink">
    <!-- Generator: Sketch 52.2 (67145) - http://www.bohemiancoding.com/sketch -->
    <title>Page 1</title>
    <desc>Created with Sketch.</desc>
    <g id="Page-1" stroke="none" stroke-width="1" fill="none" fill-rule="evenodd">
        <g id="Desktop-HD" transform="translate(-694.000000, -224.000000)">
            <g id="Page-1" transform="translate(694.000000, 224.000000)">
                <polygon id="Fill-1" fill="#1E8992" points="46.9723073 2.72025 35.273587 11.7813611 41.125556 19.4471944"></polygon>
                <polygon id="Fill-2" fill="#2EBFD1" points="5.4719342 2.95475 17.0580637 11.9491944 11.2063694 19.6150278"></polygon>
                <polygon id="Fill-3" fill="#2EBFD1" points="26.7283119 39.7819444 52.9163534 29.5780556 46.972115 2.61972222 41.1423896 19.2697222 26.2276953 0"></polygon>
                <polygon id="Fill-4" fill="#63C8D6" points="26.2278326 -5.55555555e-05 11.2093352 19.6535556 5.47187927 2.95494444 -2.74611398e-05 28.0218889 26.7284492 39.7818889"></polygon>
                <g id="Group-11" transform="translate(14.005181, 23.670833)" fill="#1D8A93">
                    <path d="M4.62569171,2.54930556 C4.62569171,3.84097222 3.59040674,2.85902778 2.31373834,2.85902778 C1.03679534,2.85902778 0.00178497409,3.84097222 0.00178497409,2.54930556 C0.00178497409,1.25791667 1.03679534,0.210694444 2.31373834,0.210694444 C3.59040674,0.210694444 4.62569171,1.25791667 4.62569171,2.54930556" id="Fill-5"></path>
                    <path d="M23.9502606,2.54930556 C23.9502606,3.84097222 22.9149756,2.85902778 21.6383073,2.85902778 C20.3613642,2.85902778 19.3260793,3.84097222 19.3260793,2.54930556 C19.3260793,1.25791667 20.3613642,0.210694444 21.6383073,0.210694444 C22.9149756,0.210694444 23.9502606,1.25791667 23.9502606,2.54930556" id="Fill-7"></path>
                    <polygon id="Fill-9" points="9.35925078 7.61305556 12.8896549 8.70388889 16.0872301 7.61305556"></polygon>
                </g>
            </g>
        </g>
    </g>
</svg>