<?xml version="1.0" encoding="UTF-8"?>
<svg width="53px" height="40px" viewBox="0 0 53 40" version="1.1" xmlns="http://www.w3.org/2000/svg" xmlns:xlink="http://www.w3.org/1999/xlink">
    <!-- Generator: Sketch 52.2 (67145) - http://www.bohemiancoding.com/sketch -->
    <title>Group</title>
    <desc>Created with Sketch.</desc>
    <g id="Desktop" stroke="none" stroke-width="1" fill="none" fill-rule="evenodd">
        <g id="Desktop-HD-Copy-6" transform="translate(-694.000000, -254.000000)">
            <g id="Group" transform="translate(694.000000, 254.000000)">
                <g id="Page-1">
                    <polygon id="Fill-1" fill="#1E8992" points="46.9723073 2.72025 35.273587 11.7813611 41.125556 19.4471944"></polygon>
                    <polygon id="Fill-2" fill="#2EBFD1" points="5.4719342 2.95475 17.0580637 11.9491944 11.2063694 19.6150278"></polygon>
                    <polygon id="Fill-3" fill="#2EBFD1" points="26.7283119 39.7819444 52.9163534 29.5780556 46.972115 2.61972222 41.1423896 19.2697222 26.2276953 0"></polygon>
                    <polygon id="Fill-4" fill="#63C8D6" points="26.2278326 -5.55555555e-05 11.2093352 19.6535556 5.47187927 2.95494444 -2.74611393e-05 28.0218889 26.7284492 39.7818889"></polygon>
                </g>
                <circle id="Oval-2-Copy-2" fill="#1E8992" cx="11" cy="25" r="1"></circle>
                <circle id="Oval-2-Copy" fill="#1E8992" cx="41" cy="25" r="1"></circle>
                <polyline id="Path-2" stroke="#1E8992" stroke-linecap="round" points="27 32 24 29 21 32 18 29 16 31"></polyline>
                <polyline id="Path-2-Copy" stroke="#1E8992" stroke-linecap="round" transform="translate(32.500000, 30.500000) scale(-1, 1) translate(-32.500000, -30.500000) " points="38 32 35 29 32 32 29 29 27 31"></polyline>
            </g>
        </g>
    </g>
</svg>